<?xml version="1.0" encoding="utf-8"?>
<!-- Generator: Adobe Illustrator 28.2.0, SVG Export Plug-In . SVG Version: 6.00 Build 0)  -->
<svg version="1.1" id="Layer_1" xmlns="http://www.w3.org/2000/svg" xmlns:xlink="http://www.w3.org/1999/xlink" x="0px" y="0px"
	 viewBox="0 0 2048 2048" style="enable-background:new 0 0 2048 2048;" xml:space="preserve">
<style type="text/css">
	.st0{fill-rule:evenodd;clip-rule:evenodd;fill:#292423;}
	.st1{fill-rule:evenodd;clip-rule:evenodd;fill:#FDC831;}
	.st2{fill:none;}
</style>
<g id="Layer_x0020_1">
	<g id="_316006000">
		<path id="_316005568" class="st0" d="M731,1639.9l-364.6,116L256,1791.1L411.1,1333c-26-47.8-46.6-98.5-61.3-151
			c-17.8-63.7-26.8-129.5-26.8-195.6c0-194.6,77.4-379.1,215.4-516C676.8,333,862.7,256.9,1057.7,256.9
			c194.9,0,380.7,76.2,519,213.6c138,137,215.3,321.5,215.3,516.1c0,194.6-77.4,379-215.4,515.9
			c-138.4,137.3-324.2,213.5-519.1,213.5c-61.8,0-123.5-7.6-183.4-23C824.7,1680.3,776.7,1662.5,731,1639.9L731,1639.9z"/>
		<path id="_316005808" class="st1" d="M1733.4,986.6c0-185.3-75.7-353.1-198-474.5c-122.3-121.4-291.2-196.6-477.8-196.6
			C871,315.5,702,390.6,579.6,512C457.2,633.4,381.5,801.1,381.5,986.3c0,62.2,8.6,122.5,24.6,179.8c15.9,57,39.3,110.9,68.8,160.7
			l-117.1,345.9l-9.3,27.3l27.5-8.8l360.2-114.6c47.7,25.7,98.7,45.8,152.3,59.5c54,13.8,110.5,21.1,168.9,21.1
			c186.6,0,355.6-75.1,477.9-196.5C1657.7,1339.5,1733.4,1171.8,1733.4,986.6L1733.4,986.6z"/>
		<path id="_316006024" class="st0" d="M947.8,803.4c-3-6-20.1-47.3-35.9-85.5c-10.1-24.4-19.7-47.6-21.6-52.1
			c-17.8-42.4-37.4-41.1-52.5-40.1c-1,0.1-1.9,0.1-3.2,0.1c-5.3,0-10.4-0.3-15.8-0.7c-6.7-0.4-13.6-0.9-20.2-0.9
			c-8.7,0-20.6,1.8-33.2,7.7c-9.3,4.3-18.9,10.9-27.6,20.5c-1.3,1.4-2.2,2.4-3.3,3.5c-20.9,21.9-66.4,69.8-66.4,161.6
			c0,96.3,69.5,187.9,79.7,201.4l0,0l0.1,0.1l0.1,0.1c0.4,0.5,1.9,2.7,4.1,5.9c25.7,37.5,143.6,210,322.9,280
			c162.7,63.5,192.1,56.3,218.4,50c4.5-1.1,8.8-2.1,13.6-2.6c21.3-2,56.1-16.6,85.4-37c24.3-17,45.5-38.4,53.7-61
			c7.2-20.2,11.3-39,13.2-54.4c2.8-22.4,0.6-40.1-3.5-46.9l-0.1-0.1c-6.2-10.2-16.9-15.3-33-22.9c-2.8-1.3-5.9-2.8-8.8-4.2l0,0
			c-11.1-5.6-49.5-24.4-82.4-40c-21.2-10-40.1-18.7-47.6-21.3c-10.5-3.8-19.7-6.6-29.5-5.5c-11.1,1.3-20.8,7-29.8,20.6l0,0
			c-4.5,6.8-12.5,17-21.2,27.6c-13.8,16.9-30.2,35.8-37.2,43.8v0.1c-3,3.4-5.6,5.3-8.1,5.6c-3.5,0.4-8.3-1-15-4.3
			c-4.3-2.1-8.4-3.9-13.6-6.2c-26-11.2-76.6-33-134.2-84.1c-20.6-18.3-38.8-38.2-53.9-56.9c-24.5-30.3-41.1-57.3-47.7-68.7
			c-5.2-8.9,0.6-14.7,5.9-20l0,0c5.9-5.9,12.6-13.9,19.3-22c3.1-3.7,6.1-7.3,9.8-11.6l0.1-0.1c9-10.5,12.8-18.2,17.8-28.5
			c0.9-1.8,1.8-3.7,2.7-5.5l0.1-0.1c4.4-9,5.6-17.5,4.8-25.5C953.3,816,950.8,809.3,947.8,803.4L947.8,803.4L947.8,803.4z"/>
	</g>
</g>
<rect class="st2" width="2048" height="2048"/>
</svg>
